<?xml version="1.0" encoding="UTF-8" standalone="no"?>
<!-- Generator: Adobe Illustrator 17.0.1, SVG Export Plug-In . SVG Version: 6.00 Build 0)  -->

<svg
   xmlns:dc="http://purl.org/dc/elements/1.1/"
   xmlns:cc="http://creativecommons.org/ns#"
   xmlns:rdf="http://www.w3.org/1999/02/22-rdf-syntax-ns#"
   xmlns:svg="http://www.w3.org/2000/svg"
   xmlns="http://www.w3.org/2000/svg"
   xmlns:sodipodi="http://sodipodi.sourceforge.net/DTD/sodipodi-0.dtd"
   xmlns:inkscape="http://www.inkscape.org/namespaces/inkscape"
   version="1.1"
   x="0px"
   y="0px"
   width="86px"
   height="86px"
   viewBox="0 0 86 86"
   enable-background="new 0 0 86 86"
   xml:space="preserve"
   id="svg21"
   sodipodi:docname="icon.svg"
   inkscape:version="0.92.2 (5c3e80d, 2017-08-06)"><metadata
     id="metadata27"><rdf:RDF><cc:Work
         rdf:about=""><dc:format>image/svg+xml</dc:format><dc:type
           rdf:resource="http://purl.org/dc/dcmitype/StillImage" /><dc:title></dc:title></cc:Work></rdf:RDF></metadata><defs
     id="defs25" /><sodipodi:namedview
     pagecolor="#ffffff"
     bordercolor="#666666"
     borderopacity="1"
     objecttolerance="10"
     gridtolerance="10"
     guidetolerance="10"
     inkscape:pageopacity="0"
     inkscape:pageshadow="2"
     inkscape:window-width="1920"
     inkscape:window-height="1016"
     id="namedview23"
     showgrid="false"
     inkscape:zoom="3.8808651"
     inkscape:cx="19.636244"
     inkscape:cy="37.416901"
     inkscape:window-x="0"
     inkscape:window-y="27"
     inkscape:window-maximized="1"
     inkscape:current-layer="Layer_1" /><g
     id="Layer_2"
     display="none" /><g
     id="Layer_1"><linearGradient
       id="SVGID_1_"
       gradientUnits="userSpaceOnUse"
       x1="0.7169"
       y1="85.2831"
       x2="85.2831"
       y2="0.7169"><stop
         offset="0"
         style="stop-color:#be382a;stop-opacity:1"
         id="stop3" /><stop
         id="stop1549"
         style="stop-color:#dc2919;stop-opacity:1"
         offset="0.14844389" /><stop
         id="stop1547"
         style="stop-color:#e54b3a;stop-opacity:1"
         offset="0.27184802" /><stop
         offset="0.3891581"
         style="stop-color:#e56934;stop-opacity:1"
         id="stop1551" /><stop
         id="stop1545"
         style="stop-color:#e47c21;stop-opacity:1"
         offset="0.49428013" /><stop
         offset="0.62377828"
         style="stop-color:#e58a21;stop-opacity:1"
         id="stop1557" /><stop
         offset="0.74718243"
         style="stop-color:#f19a10;stop-opacity:1"
         id="stop1553" /><stop
         id="stop1555"
         style="stop-color:#f0ad0e;stop-opacity:1"
         offset="0.87515706" /><stop
         offset="1"
         style="stop-color:#f0c30e;stop-opacity:1"
         id="stop5" /></linearGradient><path
       fill="url(#SVGID_1_)"
       d="M84.277,0.3H43C19.417,0.3,0.3,19.418,0.3,43v41.277c0,0.786,0.637,1.423,1.423,1.423H43   c23.583,0,42.7-19.118,42.7-42.7V1.723C85.7,0.937,85.063,0.3,84.277,0.3z"
       id="path8" /><path
       style="fill:#ffffff;stroke-width:0.14084981"
       d="M 27.946444,58.017352 13,43.03471 27.982324,28.017352 42.964636,13 57.982324,28.052524 73,43.105048 58.087624,58.052524 C 49.885816,66.273634 43.11172,73 43.034068,73 42.956428,73 36.166984,66.257812 27.946444,58.017352 Z m 26.905848,-20.834142 -5.907528,-5.922498 -2.920212,2.92449 -2.9202,2.924496 2.988696,2.998062 2.988696,2.998062 -5.943,5.958024 -5.942988,5.958018 2.918868,2.925648 2.91888,2.925642 8.863152,-8.883726 8.863164,-8.88372 z m -14.947248,-2.995848 -2.918028,-2.92728 -2.9205,2.924796 -2.920512,2.92479 2.918028,2.92728 2.918016,2.927286 2.920512,-2.924796 2.9205,-2.92479 z"
       id="path3482"
       inkscape:connector-curvature="0" /></g></svg>